<svg width="64" height="22" viewBox="0 0 64 22" fill="none" xmlns="http://www.w3.org/2000/svg">
<path fill-rule="evenodd" clip-rule="evenodd" d="M22.3305 11.3775C22.3305 5.44001 17.3311 0.625732 11.1653 0.625732C4.99944 0.625732 0 5.44001 0 11.3775C0 16.7437 4.08229 21.1918 9.42068 21.9991V14.4863H6.58501V11.3775H9.42068V9.00872C9.42068 6.31455 11.088 4.82514 13.6381 4.82514C14.8598 4.82514 16.1378 5.03538 16.1378 5.03538V7.68155H14.7292C13.343 7.68155 12.9093 8.51001 12.9093 9.36151V11.3775H16.0057L15.5112 14.4863H12.9098V22.0001C18.2482 21.1932 22.3305 16.7452 22.3305 11.3775Z" fill="#274C5B"/>
<path d="M63.2561 4.01063C62.3586 4.40059 61.409 4.6575 60.4374 4.77325C61.4585 4.1753 62.2265 3.22535 62.5972 2.10157C61.6317 2.66611 60.5772 3.06221 59.4789 3.27292C59.0163 2.7882 58.4601 2.40258 57.8439 2.13952C57.2277 1.87646 56.5645 1.74145 55.8945 1.74268C53.182 1.74268 50.9868 3.90595 50.9868 6.57265C50.9849 6.94358 51.0274 7.3134 51.1134 7.67422C49.1683 7.58304 47.2636 7.08684 45.5213 6.21738C43.7789 5.34793 42.2373 4.12435 40.9949 2.62494C40.559 3.35971 40.3285 4.19806 40.3275 5.05238C40.3275 6.72717 41.2012 8.20756 42.5206 9.07486C41.7389 9.05631 40.9732 8.84942 40.2886 8.47174V8.53155C40.2886 10.8743 41.9833 12.8232 44.2263 13.2668C43.8045 13.3793 43.3699 13.4362 42.9334 13.4363C42.6236 13.4368 42.3146 13.4068 42.0107 13.3466C42.6343 15.2656 44.4491 16.6613 46.5989 16.7011C44.8521 18.0474 42.7074 18.775 40.5019 18.7697C40.1104 18.7691 39.7193 18.7458 39.3306 18.6999C41.5742 20.1326 44.1822 20.8904 46.8442 20.8831C55.8841 20.8831 60.8227 13.521 60.8227 7.1359C60.8227 6.92655 60.8172 6.7172 60.8072 6.51284C61.7658 5.83099 62.5951 4.98365 63.2561 4.01063Z" fill="#274C5B"/>
</svg>
