<svg width="104" height="22" viewBox="0 0 104 22" fill="none" xmlns="http://www.w3.org/2000/svg">
<path d="M16.4867 2.28838C17.7195 2.29192 18.9007 2.76508 19.7725 3.60451C20.6442 4.44395 21.1355 5.58145 21.1392 6.76858V15.728C21.1355 16.9152 20.6442 18.0527 19.7725 18.8921C18.9007 19.7315 17.7195 20.2047 16.4867 20.2082H7.18266C5.94987 20.2047 4.76862 19.7315 3.8969 18.8921C3.02518 18.0527 2.53382 16.9152 2.53014 15.728V6.76858C2.53382 5.58145 3.02518 4.44395 3.8969 3.60451C4.76862 2.76508 5.94987 2.29192 7.18266 2.28838H16.4867ZM16.4867 0.496582H7.18266C3.60031 0.496582 0.669434 3.31891 0.669434 6.76858V15.728C0.669434 19.1777 3.60031 22 7.18266 22H16.4867C20.0691 22 22.9999 19.1777 22.9999 15.728V6.76858C22.9999 3.31891 20.0691 0.496582 16.4867 0.496582Z" fill="#274C5B"/>
<path d="M17.8823 6.76923C17.6062 6.76923 17.3364 6.69041 17.1069 6.54273C16.8774 6.39506 16.6985 6.18516 16.5928 5.93958C16.4872 5.694 16.4596 5.42377 16.5134 5.16307C16.5673 4.90237 16.7002 4.66289 16.8954 4.47494C17.0906 4.28698 17.3392 4.15898 17.61 4.10712C17.8807 4.05527 18.1613 4.08188 18.4164 4.1836C18.6714 4.28532 18.8893 4.45758 19.0427 4.6786C19.1961 4.89961 19.2779 5.15945 19.2779 5.42526C19.2783 5.60186 19.2425 5.7768 19.1725 5.94003C19.1025 6.10326 18.9997 6.25156 18.87 6.37644C18.7403 6.50131 18.5863 6.60029 18.4168 6.6677C18.2473 6.73511 18.0656 6.76961 17.8823 6.76923ZM11.8346 7.66489C12.5707 7.66489 13.2903 7.87509 13.9024 8.26891C14.5144 8.66273 14.9915 9.22249 15.2732 9.87739C15.5549 10.5323 15.6286 11.2529 15.485 11.9482C15.3414 12.6434 14.9869 13.282 14.4664 13.7833C13.9459 14.2845 13.2827 14.6259 12.5607 14.7642C11.8387 14.9024 11.0904 14.8315 10.4103 14.5602C9.73017 14.2889 9.14889 13.8296 8.73992 13.2402C8.33095 12.6508 8.11266 11.9578 8.11266 11.249C8.11372 10.2987 8.50619 9.38768 9.20395 8.71576C9.90172 8.04384 10.8478 7.6659 11.8346 7.66489ZM11.8346 5.87309C10.7304 5.87309 9.6511 6.18838 8.73304 6.77909C7.81498 7.3698 7.09944 8.20939 6.67691 9.1917C6.25437 10.174 6.14382 11.2549 6.35922 12.2977C6.57463 13.3406 7.10632 14.2984 7.88707 15.0503C8.66781 15.8021 9.66254 16.3141 10.7455 16.5215C11.8284 16.729 12.9509 16.6225 13.971 16.2156C14.991 15.8087 15.8629 15.1197 16.4764 14.2356C17.0898 13.3516 17.4172 12.3122 17.4172 11.249C17.4172 9.82319 16.829 8.45582 15.7821 7.44765C14.7351 6.43948 13.3152 5.87309 11.8346 5.87309Z" fill="#274C5B"/>
<path fill-rule="evenodd" clip-rule="evenodd" d="M62.3305 11.3128C62.3305 5.37531 57.3311 0.561035 51.1653 0.561035C44.9994 0.561035 40 5.37531 40 11.3128C40 16.679 44.0823 21.1271 49.4207 21.9344V14.4216H46.585V11.3128H49.4207V8.94402C49.4207 6.24985 51.088 4.76045 53.6381 4.76045C54.8598 4.76045 56.1378 4.97068 56.1378 4.97068V7.61685H54.7292C53.343 7.61685 52.9093 8.44531 52.9093 9.29681V11.3128H56.0057L55.5112 14.4216H52.9098V21.9354C58.2482 21.1285 62.3305 16.6805 62.3305 11.3128Z" fill="#274C5B"/>
<path d="M103.256 3.94593C102.359 4.33589 101.409 4.59281 100.437 4.70855C101.459 4.11061 102.226 3.16066 102.597 2.03687C101.632 2.60141 100.577 2.99752 99.4789 3.20822C99.0163 2.7235 98.4601 2.33789 97.8439 2.07482C97.2277 1.81176 96.5645 1.67675 95.8945 1.67799C93.182 1.67799 90.9868 3.84125 90.9868 6.50795C90.9849 6.87888 91.0274 7.24871 91.1134 7.60953C89.1683 7.51834 87.2636 7.02215 85.5213 6.15269C83.7789 5.28323 82.2373 4.05965 80.9949 2.56024C80.559 3.29501 80.3285 4.13337 80.3275 4.98769C80.3275 6.66247 81.2012 8.14287 82.5206 9.01017C81.7389 8.99161 80.9732 8.78472 80.2886 8.40704V8.46686C80.2886 10.8096 81.9833 12.7585 84.2263 13.2021C83.8045 13.3146 83.3699 13.3715 82.9334 13.3716C82.6236 13.3721 82.3146 13.3421 82.0107 13.2819C82.6343 15.2009 84.4491 16.5966 86.5989 16.6364C84.8521 17.9827 82.7074 18.7103 80.5019 18.705C80.1104 18.7044 79.7193 18.6811 79.3306 18.6352C81.5742 20.0679 84.1822 20.8257 86.8442 20.8184C95.8841 20.8184 100.823 13.4563 100.823 7.0712C100.823 6.86185 100.817 6.6525 100.807 6.44814C101.766 5.76629 102.595 4.91896 103.256 3.94593Z" fill="#274C5B"/>
</svg>
